<svg id="visual" viewBox="0 0 1920 1080" width="1920" height="1080" xmlns="http://www.w3.org/2000/svg" xmlns:xlink="http://www.w3.org/1999/xlink" version="1.1"><rect x="0" y="0" width="1920" height="1080" fill="#2e3440"></rect><defs><linearGradient id="grad1_0" x1="43.8%" y1="0%" x2="100%" y2="100%"><stop offset="14.444444444444446%" stop-color="#3b4252" stop-opacity="1"></stop><stop offset="85.55555555555554%" stop-color="#3b4252" stop-opacity="1"></stop></linearGradient></defs><defs><linearGradient id="grad1_1" x1="43.8%" y1="0%" x2="100%" y2="100%"><stop offset="14.444444444444446%" stop-color="#3b4252" stop-opacity="1"></stop><stop offset="85.55555555555554%" stop-color="#343b49" stop-opacity="1"></stop></linearGradient></defs><defs><linearGradient id="grad1_2" x1="43.8%" y1="0%" x2="100%" y2="100%"><stop offset="14.444444444444446%" stop-color="#2e3440" stop-opacity="1"></stop><stop offset="85.55555555555554%" stop-color="#343b49" stop-opacity="1"></stop></linearGradient></defs><defs><linearGradient id="grad2_0" x1="0%" y1="0%" x2="56.3%" y2="100%"><stop offset="14.444444444444446%" stop-color="#3b4252" stop-opacity="1"></stop><stop offset="85.55555555555554%" stop-color="#3b4252" stop-opacity="1"></stop></linearGradient></defs><defs><linearGradient id="grad2_1" x1="0%" y1="0%" x2="56.3%" y2="100%"><stop offset="14.444444444444446%" stop-color="#343b49" stop-opacity="1"></stop><stop offset="85.55555555555554%" stop-color="#3b4252" stop-opacity="1"></stop></linearGradient></defs><defs><linearGradient id="grad2_2" x1="0%" y1="0%" x2="56.3%" y2="100%"><stop offset="14.444444444444446%" stop-color="#343b49" stop-opacity="1"></stop><stop offset="85.55555555555554%" stop-color="#2e3440" stop-opacity="1"></stop></linearGradient></defs><g transform="translate(1920, 0)"><path d="M0 864C-69.5 749.3 -139.1 634.6 -252.6 609.8C-366 585 -523.5 650.1 -610.9 610.9C-698.4 571.8 -716 428.4 -746.5 309.2C-777 190 -820.5 95 -864 0L0 0Z" fill="#313744"></path><path d="M0 576C-46.4 499.5 -92.7 423 -168.4 406.5C-244 390 -349 433.4 -407.3 407.3C-465.6 381.2 -477.3 285.6 -497.7 206.1C-518 126.7 -547 63.3 -576 0L0 0Z" fill="#383e4d"></path><path d="M0 288C-23.2 249.8 -46.4 211.5 -84.2 203.3C-122 195 -174.5 216.7 -203.6 203.6C-232.8 190.6 -238.7 142.8 -248.8 103.1C-259 63.3 -273.5 31.7 -288 0L0 0Z" fill="#3b4252"></path></g><g transform="translate(0, 1080)"><path d="M0 -864C140.3 -880 280.6 -896 330.6 -798.2C380.6 -700.5 340.3 -489 398.8 -398.8C457.3 -308.6 614.6 -339.8 708.6 -293.5C802.6 -247.3 833.3 -123.6 864 0L0 0Z" fill="#313744"></path><path d="M0 -576C93.5 -586.7 187.1 -597.3 220.4 -532.2C253.8 -467 226.9 -326 265.9 -265.9C304.9 -205.8 409.7 -226.5 472.4 -195.7C535.1 -164.8 555.5 -82.4 576 0L0 0Z" fill="#383e4d"></path><path d="M0 -288C46.8 -293.3 93.5 -298.7 110.2 -266.1C126.9 -233.5 113.4 -163 132.9 -132.9C152.4 -102.9 204.9 -113.3 236.2 -97.8C267.5 -82.4 277.8 -41.2 288 0L0 0Z" fill="#3b4252"></path></g></svg>
