<svg id="visual" viewBox="0 0 900 600" width="900" height="600" xmlns="http://www.w3.org/2000/svg" xmlns:xlink="http://www.w3.org/1999/xlink" version="1.1"><rect x="0" y="0" width="900" height="600" fill="#2e3440"></rect><defs><linearGradient id="grad1_0" x1="33.3%" y1="0%" x2="100%" y2="100%"><stop offset="20%" stop-color="#3b4252" stop-opacity="1"></stop><stop offset="80%" stop-color="#3b4252" stop-opacity="1"></stop></linearGradient></defs><defs><linearGradient id="grad1_1" x1="33.3%" y1="0%" x2="100%" y2="100%"><stop offset="20%" stop-color="#3b4252" stop-opacity="1"></stop><stop offset="80%" stop-color="#343b49" stop-opacity="1"></stop></linearGradient></defs><defs><linearGradient id="grad1_2" x1="33.3%" y1="0%" x2="100%" y2="100%"><stop offset="20%" stop-color="#2e3440" stop-opacity="1"></stop><stop offset="80%" stop-color="#343b49" stop-opacity="1"></stop></linearGradient></defs><defs><linearGradient id="grad2_0" x1="0%" y1="0%" x2="66.7%" y2="100%"><stop offset="20%" stop-color="#3b4252" stop-opacity="1"></stop><stop offset="80%" stop-color="#3b4252" stop-opacity="1"></stop></linearGradient></defs><defs><linearGradient id="grad2_1" x1="0%" y1="0%" x2="66.7%" y2="100%"><stop offset="20%" stop-color="#343b49" stop-opacity="1"></stop><stop offset="80%" stop-color="#3b4252" stop-opacity="1"></stop></linearGradient></defs><defs><linearGradient id="grad2_2" x1="0%" y1="0%" x2="66.7%" y2="100%"><stop offset="20%" stop-color="#343b49" stop-opacity="1"></stop><stop offset="80%" stop-color="#2e3440" stop-opacity="1"></stop></linearGradient></defs><g transform="translate(900, 0)"><path d="M0 405.6C-79.5 400 -159.1 394.3 -202.8 351.3C-246.6 308.2 -254.5 227.8 -282.3 163C-310.2 98.2 -357.9 49.1 -405.6 0L0 0Z" fill="#313744"></path><path d="M0 270.4C-53 266.7 -106 262.9 -135.2 234.2C-164.4 205.5 -169.7 151.9 -188.2 108.7C-206.8 65.5 -238.6 32.7 -270.4 0L0 0Z" fill="#383e4d"></path><path d="M0 135.2C-26.5 133.3 -53 131.4 -67.6 117.1C-82.2 102.7 -84.8 75.9 -94.1 54.3C-103.4 32.7 -119.3 16.4 -135.2 0L0 0Z" fill="#3b4252"></path></g><g transform="translate(0, 600)"><path d="M0 -405.6C73.6 -396.6 147.3 -387.5 202.8 -351.3C258.3 -315 295.7 -251.6 326.5 -188.5C357.3 -125.4 381.4 -62.7 405.6 0L0 0Z" fill="#313744"></path><path d="M0 -270.4C49.1 -264.4 98.2 -258.4 135.2 -234.2C172.2 -210 197.1 -167.7 217.7 -125.7C238.2 -83.6 254.3 -41.8 270.4 0L0 0Z" fill="#383e4d"></path><path d="M0 -135.2C24.5 -132.2 49.1 -129.2 67.6 -117.1C86.1 -105 98.6 -83.9 108.8 -62.8C119.1 -41.8 127.1 -20.9 135.2 0L0 0Z" fill="#3b4252"></path></g></svg>